<?xml version="1.0" encoding="utf-8"?>
<svg xmlns="http://www.w3.org/2000/svg" viewBox="0 0 500 500" xmlns:bx="https://boxy-svg.com">
  <path d="M 0 0 H 500 L 500 0 V 500 L 500 500 H 0 L 0 500 V 0 L 0 0 Z" bx:shape="rect 0 0 500 500 1 0 0 2@83e4ff32" style="fill: rgb(255, 255, 255);"/>
  <path d="M 100.699 56.941 Q 101.653 31.544 125.812 56.941 L 142.612 74.603 Q 166.77 100 141.657 100 L 124.194 100 Q 99.081 100 100.035 74.603 Z" bx:shape="triangle 99.081 31.544 67.689 68.456 0.038 0.371 1@546c006d" style="fill: rgb(160, 160, 160);"/>
  <path d="M 0.699 156.941 Q 1.653 131.544 25.812 156.941 L 42.612 174.603 Q 66.77 200 41.657 200 L 24.194 200 Q -0.919 200 0.035 174.603 Z" bx:shape="triangle -0.919 131.544 67.689 68.456 0.038 0.371 1@c733ef9d" style="fill: rgb(160, 160, 160);"/>
  <path d="M 400.699 56.941 Q 401.653 31.544 425.812 56.941 L 442.612 74.603 Q 466.77 100 441.657 100 L 424.194 100 Q 399.081 100 400.035 74.603 Z" bx:shape="triangle 399.081 31.544 67.689 68.456 0.038 0.371 1@71c52b07" style="fill: rgb(160, 160, 160);"/>
  <path d="M 300.699 156.941 Q 301.653 131.544 325.812 156.941 L 342.612 174.603 Q 366.77 200 341.657 200 L 324.194 200 Q 299.081 200 300.035 174.603 Z" bx:shape="triangle 299.081 131.544 67.689 68.456 0.038 0.371 1@a322e4f5" style="fill: rgb(160, 160, 160);"/>
  <path d="M 200.699 256.941 Q 201.653 231.544 225.812 256.941 L 242.612 274.603 Q 266.77 300 241.657 300 L 224.194 300 Q 199.081 300 200.035 274.603 Z" bx:shape="triangle 199.081 231.544 67.689 68.456 0.038 0.371 1@b77dbdfb" style="fill: rgb(160, 160, 160);"/>
  <path d="M 100.699 356.941 Q 101.653 331.544 125.812 356.941 L 142.612 374.603 Q 166.77 400 141.657 400 L 124.194 400 Q 99.081 400 100.035 374.603 Z" bx:shape="triangle 99.081 331.544 67.689 68.456 0.038 0.371 1@96985e35" style="fill: rgb(160, 160, 160);"/>
  <path d="M 400.699 356.941 Q 401.653 331.544 425.812 356.941 L 442.612 374.603 Q 466.77 400 441.657 400 L 424.194 400 Q 399.081 400 400.035 374.603 Z" bx:shape="triangle 399.081 331.544 67.689 68.456 0.038 0.371 1@5c94f7ed" style="fill: rgb(160, 160, 160);"/>
  <path d="M 300.699 456.941 Q 301.653 431.544 325.812 456.941 L 342.612 474.603 Q 366.77 500 341.657 500 L 324.194 500 Q 299.081 500 300.035 474.603 Z" bx:shape="triangle 299.081 431.544 67.689 68.456 0.038 0.371 1@0c42c17b" style="fill: rgb(160, 160, 160);"/>
  <path d="M 0.699 456.941 Q 1.653 431.544 25.812 456.941 L 42.612 474.603 Q 66.77 500 41.657 500 L 24.194 500 Q -0.919 500 0.035 474.603 Z" bx:shape="triangle -0.919 431.544 67.689 68.456 0.038 0.371 1@2b715a57" style="fill: rgb(160, 160, 160);"/>
</svg>